<svg width="1280" height="720" xmlns="http://www.w3.org/2000/svg" xmlns:xlink="http://www.w3.org/1999/xlink" overflow="hidden"><g><rect x="0" y="0" width="1280" height="720" fill="#FFFFFF"/><path d="M136.933 23.0424 265.1 23.0424 265.1 40.0424 136.933 40.0424Z" fill="#00FF00" fill-rule="evenodd"/><path d="M271.6 23.0424 298.933 23.0424 298.933 40.0424 271.6 40.0424Z" fill="#FFFF00" fill-rule="evenodd"/><path d="M298.933 23.0424 308.6 23.0424 308.6 40.0424 298.933 40.0424Z" fill="#FFFF00" fill-rule="evenodd"/><path d="M308.6 23.0424 311.267 23.0424 311.267 40.0424 308.6 40.0424Z" fill="#FFFF00" fill-rule="evenodd"/><path d="M311.267 23.0424 318.433 23.0424 318.433 40.0424 311.267 40.0424Z" fill="#FFFF00" fill-rule="evenodd"/><path d="M318.433 23.0424 321.1 23.0424 321.1 40.0424 318.433 40.0424Z" fill="#FFFF00" fill-rule="evenodd"/><path d="M321.1 23.0424 497.433 23.0424 497.433 40.0424 321.1 40.0424Z" fill="#FFFF00" fill-rule="evenodd"/><path d="M503.933 23.0424 686.267 23.0424 686.267 40.0424 503.933 40.0424Z" fill="#00FFFF" fill-rule="evenodd"/><path d="M169.6 72.0424 269.433 72.0424 269.433 89.0424 169.6 89.0424Z" fill="#00FF00" fill-rule="evenodd"/><path d="M269.433 72.0424 272.1 72.0424 272.1 89.0424 269.433 89.0424Z" fill="#00FF00" fill-rule="evenodd"/><path d="M272.1 72.0424 278.267 72.0424 278.267 89.0424 272.1 89.0424Z" fill="#00FF00" fill-rule="evenodd"/><path d="M278.267 72.0424 280.933 72.0424 280.933 89.0424 278.267 89.0424Z" fill="#00FF00" fill-rule="evenodd"/><path d="M280.933 72.0424 359.1 72.0424 359.1 89.0424 280.933 89.0424Z" fill="#00FF00" fill-rule="evenodd"/><path d="M359.1 72.0424 361.767 72.0424 361.767 89.0424 359.1 89.0424Z" fill="#00FF00" fill-rule="evenodd"/><path d="M361.767 72.0424 373.1 72.0424 373.1 89.0424 361.767 89.0424Z" fill="#00FF00" fill-rule="evenodd"/><path d="M373.1 72.0424 375.767 72.0424 375.767 89.0424 373.1 89.0424Z" fill="#00FF00" fill-rule="evenodd"/><path d="M375.767 72.0424 440.767 72.0424 440.767 89.0424 375.767 89.0424Z" fill="#00FF00" fill-rule="evenodd"/><path d="M440.767 72.0424 443.433 72.0424 443.433 89.0424 440.767 89.0424Z" fill="#00FF00" fill-rule="evenodd"/><path d="M443.433 72.0424 642.767 72.0424 642.767 89.0424 443.433 89.0424Z" fill="#00FF00" fill-rule="evenodd"/><path d="M169.6 93.0424 294.267 93.0424 294.267 110.042 169.6 110.042Z" fill="#00FF00" fill-rule="evenodd"/><path d="M294.267 93.0424 296.933 93.0424 296.933 110.042 294.267 110.042Z" fill="#00FF00" fill-rule="evenodd"/><path d="M296.933 93.0424 303.1 93.0424 303.1 110.042 296.933 110.042Z" fill="#00FF00" fill-rule="evenodd"/><path d="M303.1 93.0424 305.767 93.0424 305.767 110.042 303.1 110.042Z" fill="#00FF00" fill-rule="evenodd"/><path d="M305.767 93.0424 428.6 93.0424 428.6 110.042 305.767 110.042Z" fill="#00FF00" fill-rule="evenodd"/><path d="M428.6 93.0424 433.1 93.0424 433.1 110.042 428.6 110.042Z" fill="#00FF00" fill-rule="evenodd"/><path d="M433.1 93.0424 484.267 93.0424 484.267 110.042 433.1 110.042Z" fill="#00FF00" fill-rule="evenodd"/><path d="M484.267 93.0424 486.933 93.0424 486.933 110.042 484.267 110.042Z" fill="#00FF00" fill-rule="evenodd"/><path d="M486.933 93.0424 606.6 93.0424 606.6 110.042 486.933 110.042Z" fill="#00FF00" fill-rule="evenodd"/><path d="M606.6 93.0424 609.267 93.0424 609.267 110.042 606.6 110.042Z" fill="#00FF00" fill-rule="evenodd"/><path d="M609.267 93.0424 796.267 93.0424 796.267 110.042 609.267 110.042Z" fill="#00FF00" fill-rule="evenodd"/><path d="M169.6 114.042 277.1 114.042 277.1 131.042 169.6 131.042Z" fill="#00FF00" fill-rule="evenodd"/><path d="M277.1 114.042 279.767 114.042 279.767 131.042 277.1 131.042Z" fill="#00FF00" fill-rule="evenodd"/><path d="M279.767 114.042 285.933 114.042 285.933 131.042 279.767 131.042Z" fill="#00FF00" fill-rule="evenodd"/><path d="M285.933 114.042 288.6 114.042 288.6 131.042 285.933 131.042Z" fill="#00FF00" fill-rule="evenodd"/><path d="M288.6 114.042 609.933 114.042 609.933 131.042 288.6 131.042Z" fill="#00FF00" fill-rule="evenodd"/><path d="M169.6 387.042 331.933 387.042 331.933 404.042 169.6 404.042Z" fill="#FFFF00" fill-rule="evenodd"/><path d="M331.933 387.042 334.6 387.042 334.6 404.042 331.933 404.042Z" fill="#FFFF00" fill-rule="evenodd"/><path d="M334.6 387.042 340.767 387.042 340.767 404.042 334.6 404.042Z" fill="#FFFF00" fill-rule="evenodd"/><path d="M340.767 387.042 343.433 387.042 343.433 404.042 340.767 404.042Z" fill="#FFFF00" fill-rule="evenodd"/><path d="M343.433 387.042 524.6 387.042 524.6 404.042 343.433 404.042Z" fill="#FFFF00" fill-rule="evenodd"/><path d="M524.6 387.042 742.6 387.042 742.6 404.042 524.6 404.042Z" fill="#FFFF00" fill-rule="evenodd"/><path d="M169.6 471.042 282.1 471.042 282.1 488.042 169.6 488.042Z" fill="#FFFF00" fill-rule="evenodd"/><path d="M282.1 471.042 284.767 471.042 284.767 488.042 282.1 488.042Z" fill="#FFFF00" fill-rule="evenodd"/><path d="M284.767 471.042 290.933 471.042 290.933 488.042 284.767 488.042Z" fill="#FFFF00" fill-rule="evenodd"/><path d="M290.933 471.042 293.6 471.042 293.6 488.042 290.933 488.042Z" fill="#FFFF00" fill-rule="evenodd"/><path d="M293.6 471.042 843.767 471.042 843.767 488.042 293.6 488.042Z" fill="#FFFF00" fill-rule="evenodd"/><path d="M169.6 520.042 301.767 520.042 301.767 537.042 169.6 537.042Z" fill="#00FFFF" fill-rule="evenodd"/><path d="M301.767 520.042 304.433 520.042 304.433 537.042 301.767 537.042Z" fill="#00FFFF" fill-rule="evenodd"/><path d="M304.433 520.042 310.6 520.042 310.6 537.042 304.433 537.042Z" fill="#00FFFF" fill-rule="evenodd"/><path d="M310.6 520.042 313.267 520.042 313.267 537.042 310.6 537.042Z" fill="#00FFFF" fill-rule="evenodd"/><path d="M313.267 520.042 567.767 520.042 567.767 537.042 313.267 537.042Z" fill="#00FFFF" fill-rule="evenodd"/><path d="M567.767 520.042 674.933 520.042 674.933 537.042 567.767 537.042Z" fill="#00FFFF" fill-rule="evenodd"/><path d="M674.933 520.042 889.1 520.042 889.1 537.042 674.933 537.042Z" fill="#00FFFF" fill-rule="evenodd"/><path d="M169.6 568.042 322.767 568.042 322.767 585.042 169.6 585.042Z" fill="#FFFF00" fill-rule="evenodd"/><path d="M322.767 568.042 325.433 568.042 325.433 585.042 322.767 585.042Z" fill="#FFFF00" fill-rule="evenodd"/><path d="M325.433 568.042 331.6 568.042 331.6 585.042 325.433 585.042Z" fill="#FFFF00" fill-rule="evenodd"/><path d="M331.6 568.042 334.267 568.042 334.267 585.042 331.6 585.042Z" fill="#FFFF00" fill-rule="evenodd"/><path d="M334.267 568.042 1022.6 568.042 1022.6 585.042 334.267 585.042Z" fill="#FFFF00" fill-rule="evenodd"/><path d="M1022.6 568.042 1025.27 568.042 1025.27 585.042 1022.6 585.042Z" fill="#FFFF00" fill-rule="evenodd"/><path d="M1025.27 568.042 1157.77 568.042 1157.77 585.042 1025.27 585.042Z" fill="#FFFF00" fill-rule="evenodd"/><path d="M169.6 617.042 231.267 617.042 231.267 634.042 169.6 634.042Z" fill="#00FFFF" fill-rule="evenodd"/><path d="M231.267 617.042 327.267 617.042 327.267 634.042 231.267 634.042Z" fill="#00FFFF" fill-rule="evenodd"/><path d="M327.267 617.042 329.933 617.042 329.933 634.042 327.267 634.042Z" fill="#00FFFF" fill-rule="evenodd"/><path d="M329.933 617.042 336.1 617.042 336.1 634.042 329.933 634.042Z" fill="#00FFFF" fill-rule="evenodd"/><path d="M336.1 617.042 338.767 617.042 338.767 634.042 336.1 634.042Z" fill="#00FFFF" fill-rule="evenodd"/><path d="M338.767 617.042 698.933 617.042 698.933 634.042 338.767 634.042Z" fill="#00FFFF" fill-rule="evenodd"/><path d="M169.6 638.042 331.767 638.042 331.767 655.042 169.6 655.042Z" fill="#00FFFF" fill-rule="evenodd"/><path d="M331.767 638.042 334.433 638.042 334.433 655.042 331.767 655.042Z" fill="#00FFFF" fill-rule="evenodd"/><path d="M334.433 638.042 340.6 638.042 340.6 655.042 334.433 655.042Z" fill="#00FFFF" fill-rule="evenodd"/><path d="M340.6 638.042 343.267 638.042 343.267 655.042 340.6 655.042Z" fill="#00FFFF" fill-rule="evenodd"/><path d="M343.267 638.042 777.1 638.042 777.1 655.042 343.267 655.042Z" fill="#00FFFF" fill-rule="evenodd"/><path d="M777.1 638.042 779.767 638.042 779.767 655.042 777.1 655.042Z" fill="#00FFFF" fill-rule="evenodd"/><path d="M779.767 638.042 808.433 638.042 808.433 655.042 779.767 655.042Z" fill="#00FFFF" fill-rule="evenodd"/><path d="M808.433 638.042 812.267 638.042 812.267 655.042 808.433 655.042Z" fill="#00FFFF" fill-rule="evenodd"/><path d="M169.6 659.042 374.1 659.042 374.1 676.042 169.6 676.042Z" fill="#00FFFF" fill-rule="evenodd"/><path d="M374.1 659.042 376.767 659.042 376.767 676.042 374.1 676.042Z" fill="#00FFFF" fill-rule="evenodd"/><path d="M376.767 659.042 382.933 659.042 382.933 676.042 376.767 676.042Z" fill="#00FFFF" fill-rule="evenodd"/><path d="M382.933 659.042 385.6 659.042 385.6 676.042 382.933 676.042Z" fill="#00FFFF" fill-rule="evenodd"/><path d="M385.6 659.042 924.267 659.042 924.267 676.042 385.6 676.042Z" fill="#00FFFF" fill-rule="evenodd"/><text font-family="Aptos,Aptos_MSFontService,sans-serif" font-weight="400" font-size="13" transform="translate(97.6 36)">Steps (</text><text font-family="Aptos,Aptos_MSFontService,sans-serif" font-weight="400" font-size="13" transform="translate(136.933 36)">green = input handlers</text><text font-family="Aptos,Aptos_MSFontService,sans-serif" font-weight="400" font-size="13" transform="translate(265.1 36)">,</text><text font-family="Aptos,Aptos_MSFontService,sans-serif" font-weight="400" font-size="13" transform="translate(271.6 36)">yello</text><text font-family="Aptos,Aptos_MSFontService,sans-serif" font-weight="400" font-size="13" transform="translate(298.933 36)">w</text><text font-family="Aptos,Aptos_MSFontService,sans-serif" font-weight="400" font-size="13" transform="translate(308.6 36)"></text><text font-family="Aptos,Aptos_MSFontService,sans-serif" font-weight="400" font-size="13" transform="translate(311.267 36)">=</text><text font-family="Aptos,Aptos_MSFontService,sans-serif" font-weight="400" font-size="13" transform="translate(318.433 36)"></text><text font-family="Aptos,Aptos_MSFontService,sans-serif" font-weight="400" font-size="13" transform="translate(321.1 36)">generate key intermediate files</text><text font-family="Aptos,Aptos_MSFontService,sans-serif" font-weight="400" font-size="13" transform="translate(497.433 36)">,</text><text font-family="Aptos,Aptos_MSFontService,sans-serif" font-weight="400" font-size="13" transform="translate(503.933 36)">blue = generate desired outputs</text><text font-family="Aptos,Aptos_MSFontService,sans-serif" font-weight="400" font-size="13" transform="translate(686.267 36)">); files</text><text font-family="Aptos,Aptos_MSFontService,sans-serif" font-weight="400" font-size="13" transform="translate(723.433 36)">listed</text><text font-family="Aptos,Aptos_MSFontService,sans-serif" font-weight="400" font-size="13" transform="translate(758.1 36)">in</text><text font-family="Aptos,Aptos_MSFontService,sans-serif" font-weight="400" font-size="13" transform="translate(771.267 36)">order</text><text font-family="Aptos,Aptos_MSFontService,sans-serif" font-weight="400" font-size="13" transform="translate(804.767 36)">of</text><text font-family="Aptos,Aptos_MSFontService,sans-serif" font-weight="400" font-size="13" transform="translate(818.767 36)">execution</text><text font-family="Arial,Arial_MSFontService,sans-serif" font-weight="400" font-size="13" transform="translate(97.6 64)">•</text><text font-family="Aptos,Aptos_MSFontService,sans-serif" font-weight="700" font-size="13" transform="translate(121.6 64)">01_fetch/</text><text font-family="Aptos,Aptos_MSFontService,sans-serif" font-weight="700" font-size="13" transform="translate(178.767 64)">src</text><text font-family="Arial,Arial_MSFontService,sans-serif" font-weight="400" font-size="13" transform="translate(145.6 85)">•</text><text font-family="Aptos,Aptos_MSFontService,sans-serif" font-weight="400" font-size="13" transform="translate(169.6 85)">Load_institutions</text><text font-family="Aptos,Aptos_MSFontService,sans-serif" font-weight="400" font-size="13" transform="translate(269.433 85)"></text><text font-family="Aptos,Aptos_MSFontService,sans-serif" font-weight="400" font-size="13" transform="translate(272.1 85)">–</text><text font-family="Aptos,Aptos_MSFontService,sans-serif" font-weight="400" font-size="13" transform="translate(278.267 85)"></text><text font-family="Aptos,Aptos_MSFontService,sans-serif" font-weight="400" font-size="13" transform="translate(280.933 85)">loads profiles</text><text font-family="Aptos,Aptos_MSFontService,sans-serif" font-weight="400" font-size="13" transform="translate(359.1 85)"></text><text font-family="Aptos,Aptos_MSFontService,sans-serif" font-weight="400" font-size="13" transform="translate(361.767 85)">of</text><text font-family="Aptos,Aptos_MSFontService,sans-serif" font-weight="400" font-size="13" transform="translate(373.1 85)"></text><text font-family="Aptos,Aptos_MSFontService,sans-serif" font-weight="400" font-size="13" transform="translate(375.767 85)">institutions</text><text font-family="Aptos,Aptos_MSFontService,sans-serif" font-weight="400" font-size="13" transform="translate(440.767 85)"></text><text font-family="Aptos,Aptos_MSFontService,sans-serif" font-weight="400" font-size="13" transform="translate(443.433 85)">from MC; each row is an institution</text><text font-family="Arial,Arial_MSFontService,sans-serif" font-weight="400" font-size="13" transform="translate(145.6 106)">•</text><text font-family="Aptos,Aptos_MSFontService,sans-serif" font-weight="400" font-size="13" transform="translate(169.6 106)">Load_representatives</text><text font-family="Aptos,Aptos_MSFontService,sans-serif" font-weight="400" font-size="13" transform="translate(294.267 106)"></text><text font-family="Aptos,Aptos_MSFontService,sans-serif" font-weight="400" font-size="13" transform="translate(296.933 106)">–</text><text font-family="Aptos,Aptos_MSFontService,sans-serif" font-weight="400" font-size="13" transform="translate(303.1 106)"></text><text font-family="Aptos,Aptos_MSFontService,sans-serif" font-weight="400" font-size="13" transform="translate(305.767 106)">loads profiles of “non</text><text font-family="Aptos,Aptos_MSFontService,sans-serif" font-weight="400" font-size="13" transform="translate(428.6 106)">-</text><text font-family="Aptos,Aptos_MSFontService,sans-serif" font-weight="400" font-size="13" transform="translate(433.1 106)">inactive”</text><text font-family="Aptos,Aptos_MSFontService,sans-serif" font-weight="400" font-size="13" transform="translate(484.267 106)"></text><text font-family="Aptos,Aptos_MSFontService,sans-serif" font-weight="400" font-size="13" transform="translate(486.933 106)">representatives from</text><text font-family="Aptos,Aptos_MSFontService,sans-serif" font-weight="400" font-size="13" transform="translate(606.6 106)"></text><text font-family="Aptos,Aptos_MSFontService,sans-serif" font-weight="400" font-size="13" transform="translate(609.267 106)">MC; each row is a representative</text><text font-family="Arial,Arial_MSFontService,sans-serif" font-weight="400" font-size="13" transform="translate(145.6 127)">•</text><text font-family="Aptos,Aptos_MSFontService,sans-serif" font-weight="400" font-size="13" transform="translate(169.6 127)">Load_transactions</text><text font-family="Aptos,Aptos_MSFontService,sans-serif" font-weight="400" font-size="13" transform="translate(277.1 127)"></text><text font-family="Aptos,Aptos_MSFontService,sans-serif" font-weight="400" font-size="13" transform="translate(279.767 127)">–</text><text font-family="Aptos,Aptos_MSFontService,sans-serif" font-weight="400" font-size="13" transform="translate(285.933 127)"></text><text font-family="Aptos,Aptos_MSFontService,sans-serif" font-weight="400" font-size="13" transform="translate(288.6 127)">loads transactions from MC; each row is a line in invoice</text><text font-family="Arial,Arial_MSFontService,sans-serif" font-weight="400" font-size="13" transform="translate(97.6 154)">•</text><text font-family="Aptos,Aptos_MSFontService,sans-serif" font-weight="700" font-size="13" transform="translate(121.6 154)">02_clean_transactions</text><text font-family="Aptos,Aptos_MSFontService,sans-serif" font-weight="700" font-size="13" transform="translate(258.433 154)">/</text><text font-family="Aptos,Aptos_MSFontService,sans-serif" font-weight="700" font-size="13" transform="translate(263.6 154)">src</text><text font-family="Arial,Arial_MSFontService,sans-serif" font-weight="400" font-size="13" transform="translate(145.6 176)">•</text><text font-family="Aptos,Aptos_MSFontService,sans-serif" font-weight="400" font-size="13" transform="translate(169.6 176)">Clean_institutions_list</text><text font-family="Aptos,Aptos_MSFontService,sans-serif" font-weight="400" font-size="13" transform="translate(301.267 176)">–</text><text font-family="Aptos,Aptos_MSFontService,sans-serif" font-weight="400" font-size="13" transform="translate(310.1 176)">standardizes column names</text><text font-family="Arial,Arial_MSFontService,sans-serif" font-weight="400" font-size="13" transform="translate(145.6 197)">•</text><text font-family="Aptos,Aptos_MSFontService,sans-serif" font-weight="400" font-size="13" transform="translate(169.6 197)">Clean_representatives_list</text><text font-family="Aptos,Aptos_MSFontService,sans-serif" font-weight="400" font-size="13" transform="translate(326.1 197)">–</text><text font-family="Aptos,Aptos_MSFontService,sans-serif" font-weight="400" font-size="13" transform="translate(334.933 197)">standardizes column names</text><text font-family="Arial,Arial_MSFontService,sans-serif" font-weight="400" font-size="13" transform="translate(145.6 218)">•</text><text font-family="Aptos,Aptos_MSFontService,sans-serif" font-weight="400" font-size="13" transform="translate(169.6 218)">Clean_transaction_report</text><text font-family="Aptos,Aptos_MSFontService,sans-serif" font-weight="400" font-size="13" transform="translate(320.1 218)">–</text><text font-family="Aptos,Aptos_MSFontService,sans-serif" font-weight="400" font-size="13" transform="translate(328.933 218)">removes unnecessary columns from transactions report</text><text font-family="Arial,Arial_MSFontService,sans-serif" font-weight="400" font-size="13" transform="translate(97.6 245)">•</text><text font-family="Aptos,Aptos_MSFontService,sans-serif" font-weight="700" font-size="13" transform="translate(121.6 245)">03_munge_transactions</text><text font-family="Aptos,Aptos_MSFontService,sans-serif" font-weight="700" font-size="13" transform="translate(266.267 245)">/</text><text font-family="Aptos,Aptos_MSFontService,sans-serif" font-weight="700" font-size="13" transform="translate(271.433 245)">src</text><text font-family="Arial,Arial_MSFontService,sans-serif" font-weight="400" font-size="13" transform="translate(145.6 266)">•</text><text font-family="Aptos,Aptos_MSFontService,sans-serif" font-weight="400" font-size="13" transform="translate(169.6 266)">Join_member_type</text><text font-family="Aptos,Aptos_MSFontService,sans-serif" font-weight="400" font-size="13" transform="translate(280.267 266)">–</text><text font-family="Aptos,Aptos_MSFontService,sans-serif" font-weight="400" font-size="13" transform="translate(289.1 266)">links ‘member type’ field from institution profiles to transaction report</text><text font-family="Arial,Arial_MSFontService,sans-serif" font-weight="400" font-size="13" transform="translate(145.6 288)">•</text><text font-family="Aptos,Aptos_MSFontService,sans-serif" font-weight="400" font-size="13" transform="translate(169.6 288)">Convert_values</text><text font-family="Aptos,Aptos_MSFontService,sans-serif" font-weight="400" font-size="13" transform="translate(261.767 288)">–</text><text font-family="Aptos,Aptos_MSFontService,sans-serif" font-weight="400" font-size="13" transform="translate(270.6 288)">convert columns to pandas datetime, make payment values positiv</text><text font-family="Aptos,Aptos_MSFontService,sans-serif" font-weight="400" font-size="13" transform="translate(654.767 288)">e</text><text font-family="Arial,Arial_MSFontService,sans-serif" font-weight="400" font-size="13" transform="translate(145.6 309)">•</text><text font-family="Aptos,Aptos_MSFontService,sans-serif" font-weight="400" font-size="13" transform="translate(169.6 309)">Combine_invoice_payments</text><text font-family="Aptos,Aptos_MSFontService,sans-serif" font-weight="400" font-size="13" transform="translate(335.6 309)">–</text><text font-family="Aptos,Aptos_MSFontService,sans-serif" font-weight="400" font-size="13" transform="translate(344.433 309)">turns transaction report into ‘tidy’ dataset; each row is an invoice (descriptions joined with ‘|’ delimiter)</text><text font-family="Arial,Arial_MSFontService,sans-serif" font-weight="400" font-size="13" transform="translate(145.6 330)">•</text><text font-family="Aptos,Aptos_MSFontService,sans-serif" font-weight="400" font-size="13" transform="translate(169.6 330)">Track_payments</text><text font-family="Aptos,Aptos_MSFontService,sans-serif" font-weight="400" font-size="13" transform="translate(267.1 330)">–</text><text font-family="Aptos,Aptos_MSFontService,sans-serif" font-weight="400" font-size="13" transform="translate(275.933 330)">flags where initiation and discounted payments are defined in description</text><text font-family="Aptos,Aptos_MSFontService,sans-serif" font-weight="400" font-size="13" transform="translate(698.6 330)">and/or</text><text font-family="Aptos,Aptos_MSFontService,sans-serif" font-weight="400" font-size="13" transform="translate(739.6 330)">payment</text><text font-family="Aptos,Aptos_MSFontService,sans-serif" font-weight="400" font-size="13" transform="translate(792.933 330)">amoun</text><text font-family="Aptos,Aptos_MSFontService,sans-serif" font-weight="400" font-size="13" transform="translate(833.6 330)">t</text><text font-family="Arial,Arial_MSFontService,sans-serif" font-weight="400" font-size="13" transform="translate(97.6 357)">•</text><text font-family="Aptos,Aptos_MSFontService,sans-serif" font-weight="700" font-size="13" transform="translate(121.6 357)">04_process_transactions</text><text font-family="Aptos,Aptos_MSFontService,sans-serif" font-weight="700" font-size="13" transform="translate(273.6 357)">/</text><text font-family="Aptos,Aptos_MSFontService,sans-serif" font-weight="700" font-size="13" transform="translate(278.767 357)">src</text><text font-family="Arial,Arial_MSFontService,sans-serif" font-weight="400" font-size="13" transform="translate(145.6 378)">•</text><text font-family="Aptos,Aptos_MSFontService,sans-serif" font-weight="400" font-size="13" transform="translate(169.6 378)">Adjust_payments</text><text font-family="Aptos,Aptos_MSFontService,sans-serif" font-weight="400" font-size="13" transform="translate(272.433 378)">–</text><text font-family="Aptos,Aptos_MSFontService,sans-serif" font-weight="400" font-size="13" transform="translate(281.267 378)">adjust for discounted and initiation payments so they are treated as</text><text font-family="Aptos,Aptos_MSFontService,sans-serif" font-weight="400" font-size="13" transform="translate(670.1 378)">five and one year</text><text font-family="Aptos,Aptos_MSFontService,sans-serif" font-weight="400" font-size="13" transform="translate(769.267 378)">payments (respectively)</text><text font-family="Arial,Arial_MSFontService,sans-serif" font-weight="400" font-size="13" transform="translate(145.6 400)">•</text><text font-family="Aptos,Aptos_MSFontService,sans-serif" font-weight="400" font-size="13" transform="translate(169.6 400)">Combine_annual_payments</text><text font-family="Aptos,Aptos_MSFontService,sans-serif" font-weight="400" font-size="13" transform="translate(331.933 400)"></text><text font-family="Aptos,Aptos_MSFontService,sans-serif" font-weight="400" font-size="13" transform="translate(334.6 400)">–</text><text font-family="Aptos,Aptos_MSFontService,sans-serif" font-weight="400" font-size="13" transform="translate(340.767 400)"></text><text font-family="Aptos,Aptos_MSFontService,sans-serif" font-weight="400" font-size="13" transform="translate(343.433 400)">sum payments across one year</text><text font-family="Aptos,Aptos_MSFontService,sans-serif" font-weight="400" font-size="13" transform="translate(524.6 400)">(descriptions joined with ‘//’ delimiter)</text><text font-family="Arial,Arial_MSFontService,sans-serif" font-weight="400" font-size="13" transform="translate(145.6 421)">•</text><text font-family="Aptos,Aptos_MSFontService,sans-serif" font-weight="400" font-size="13" transform="translate(169.6 421)">Normalize_payments</text><text font-family="Aptos,Aptos_MSFontService,sans-serif" font-weight="400" font-size="13" transform="translate(294.767 421)">–</text><text font-family="Aptos,Aptos_MSFontService,sans-serif" font-weight="400" font-size="13" transform="translate(303.6 421)">normalize payments by the annual due amount (to report how many years were pre</text><text font-family="Aptos,Aptos_MSFontService,sans-serif" font-weight="400" font-size="13" transform="translate(776.933 421)">-</text><text font-family="Aptos,Aptos_MSFontService,sans-serif" font-weight="400" font-size="13" transform="translate(781.433 421)">paid)</text><text font-family="Arial,Arial_MSFontService,sans-serif" font-weight="400" font-size="13" transform="translate(145.6 442)">•</text><text font-family="Aptos,Aptos_MSFontService,sans-serif" font-weight="400" font-size="13" transform="translate(169.6 442)">Prepare_payments</text><text font-family="Aptos,Aptos_MSFontService,sans-serif" font-weight="400" font-size="13" transform="translate(280.933 442)">–</text><text font-family="Aptos,Aptos_MSFontService,sans-serif" font-weight="400" font-size="13" transform="translate(289.767 442)">pivot dataset into wide format, preserved indices are university,</text><text font-family="Aptos,Aptos_MSFontService,sans-serif" font-weight="400" font-size="13" transform="translate(655.267 442)">member type and initiation year; columns are years and values are number of years prepaid</text><text font-family="Arial,Arial_MSFontService,sans-serif" font-weight="400" font-size="13" transform="translate(145.6 463)">•</text><text font-family="Aptos,Aptos_MSFontService,sans-serif" font-weight="400" font-size="13" transform="translate(169.6 463)">Spread_payments</text><text font-family="Aptos,Aptos_MSFontService,sans-serif" font-weight="400" font-size="13" transform="translate(276.767 463)">–</text><text font-family="Aptos,Aptos_MSFontService,sans-serif" font-weight="400" font-size="13" transform="translate(285.6 463)">spread payments across years until 2028; values in columns pre</text><text font-family="Aptos,Aptos_MSFontService,sans-serif" font-weight="400" font-size="13" transform="translate(653.1 463)">-</text><text font-family="Aptos,Aptos_MSFontService,sans-serif" font-weight="400" font-size="13" transform="translate(657.6 463)">2028 will be &lt;=1</text><text font-family="Arial,Arial_MSFontService,sans-serif" font-weight="400" font-size="13" transform="translate(145.6 484)">•</text><text font-family="Aptos,Aptos_MSFontService,sans-serif" font-weight="400" font-size="13" transform="translate(169.6 484)">Classifiy_payments</text><text font-family="Aptos,Aptos_MSFontService,sans-serif" font-weight="400" font-size="13" transform="translate(282.1 484)"></text><text font-family="Aptos,Aptos_MSFontService,sans-serif" font-weight="400" font-size="13" transform="translate(284.767 484)">–</text><text font-family="Aptos,Aptos_MSFontService,sans-serif" font-weight="400" font-size="13" transform="translate(290.933 484)"></text><text font-family="Aptos,Aptos_MSFontService,sans-serif" font-weight="400" font-size="13" transform="translate(293.6 484)">classifies payments as not paid (&lt;1) , paid (=1) or overpaid (&gt;1; overpay can only happen in 2028)</text><text font-family="Arial,Arial_MSFontService,sans-serif" font-weight="400" font-size="13" transform="translate(97.6 512)">•</text><text font-family="Aptos,Aptos_MSFontService,sans-serif" font-weight="700" font-size="13" transform="translate(121.6 512)">05_visualize_transactions</text><text font-family="Aptos,Aptos_MSFontService,sans-serif" font-weight="700" font-size="13" transform="translate(277.767 512)">/</text><text font-family="Aptos,Aptos_MSFontService,sans-serif" font-weight="700" font-size="13" transform="translate(282.933 512)">src</text><text font-family="Aptos,Aptos_MSFontService,sans-serif" font-weight="700" font-size="13" transform="translate(304.767 512)">(files not added yet; may</text><text font-family="Aptos,Aptos_MSFontService,sans-serif" font-weight="700" font-size="13" transform="translate(454.433 512)">be</text><text font-family="Aptos,Aptos_MSFontService,sans-serif" font-weight="700" font-size="13" transform="translate(472.267 512)">more</text><text font-family="Aptos,Aptos_MSFontService,sans-serif" font-weight="700" font-size="13" transform="translate(506.767 512)">extensive</text><text font-family="Aptos,Aptos_MSFontService,sans-serif" font-weight="700" font-size="13" transform="translate(564.6 512)">)</text><text font-family="Arial,Arial_MSFontService,sans-serif" font-weight="400" font-size="13" transform="translate(145.6 533)">•</text><text font-family="Aptos,Aptos_MSFontService,sans-serif" font-weight="400" font-size="13" transform="translate(169.6 533)">Generate_visualization</text><text font-family="Aptos,Aptos_MSFontService,sans-serif" font-weight="400" font-size="13" transform="translate(301.767 533)"></text><text font-family="Aptos,Aptos_MSFontService,sans-serif" font-weight="400" font-size="13" transform="translate(304.433 533)">–</text><text font-family="Aptos,Aptos_MSFontService,sans-serif" font-weight="400" font-size="13" transform="translate(310.6 533)"></text><text font-family="Aptos,Aptos_MSFontService,sans-serif" font-weight="400" font-size="13" transform="translate(313.267 533)">generates heatmap of payment status (from</text><text font-family="Aptos,Aptos_MSFontService,sans-serif" font-weight="400" font-size="13" transform="translate(567.767 533)">classify_payments</text><text font-family="Aptos,Aptos_MSFontService,sans-serif" font-weight="400" font-size="13" transform="translate(674.933 533)">) over time with initiation year marked</text><text font-family="Arial,Arial_MSFontService,sans-serif" font-weight="400" font-size="13" transform="translate(97.6 560)">•</text><text font-family="Aptos,Aptos_MSFontService,sans-serif" font-weight="700" font-size="13" transform="translate(121.6 560)">06_munge_institutions</text><text font-family="Aptos,Aptos_MSFontService,sans-serif" font-weight="700" font-size="13" transform="translate(258.767 560)">/</text><text font-family="Aptos,Aptos_MSFontService,sans-serif" font-weight="700" font-size="13" transform="translate(263.933 560)">src</text><text font-family="Aptos,Aptos_MSFontService,sans-serif" font-weight="700" font-size="13" transform="translate(285.767 560)">(files not added yet ; may be more extensive)</text><text font-family="Arial,Arial_MSFontService,sans-serif" font-weight="400" font-size="13" transform="translate(145.6 581)">•</text><text font-family="Aptos,Aptos_MSFontService,sans-serif" font-weight="400" font-size="13" transform="translate(169.6 581)">Classify_institution_status</text><text font-family="Aptos,Aptos_MSFontService,sans-serif" font-weight="400" font-size="13" transform="translate(322.767 581)"></text><text font-family="Aptos,Aptos_MSFontService,sans-serif" font-weight="400" font-size="13" transform="translate(325.433 581)">–</text><text font-family="Aptos,Aptos_MSFontService,sans-serif" font-weight="400" font-size="13" transform="translate(331.6 581)"></text><text font-family="Aptos,Aptos_MSFontService,sans-serif" font-weight="400" font-size="13" transform="translate(334.267 581)">classifies whether institution is active (paid in 2024), lapsed less than one year (last paid 2023), and lapsed over one year</text><text font-family="Aptos,Aptos_MSFontService,sans-serif" font-weight="400" font-size="13" transform="translate(1022.6 581)"></text><text font-family="Aptos,Aptos_MSFontService,sans-serif" font-weight="400" font-size="13" transform="translate(1025.27 581)">(last paid prior to 2023)</text><text font-family="Arial,Arial_MSFontService,sans-serif" font-weight="400" font-size="13" transform="translate(97.6 609)">•</text><text font-family="Aptos,Aptos_MSFontService,sans-serif" font-weight="700" font-size="13" transform="translate(121.6 609)">07_munge_representatives</text><text font-family="Aptos,Aptos_MSFontService,sans-serif" font-weight="700" font-size="13" transform="translate(284.933 609)">/</text><text font-family="Aptos,Aptos_MSFontService,sans-serif" font-weight="700" font-size="13" transform="translate(290.1 609)">src</text><text font-family="Aptos,Aptos_MSFontService,sans-serif" font-weight="700" font-size="13" transform="translate(311.933 609)">(files not added yet ; may be more extensive)</text><text font-family="Arial,Arial_MSFontService,sans-serif" font-weight="400" font-size="13" transform="translate(145.6 630)">•</text><text font-family="Aptos,Aptos_MSFontService,sans-serif" font-weight="400" font-size="13" transform="translate(169.6 630)">Get_active</text><text font-family="Aptos,Aptos_MSFontService,sans-serif" font-weight="400" font-size="13" transform="translate(231.267 630)">_representatives</text><text font-family="Aptos,Aptos_MSFontService,sans-serif" font-weight="400" font-size="13" transform="translate(327.267 630)"></text><text font-family="Aptos,Aptos_MSFontService,sans-serif" font-weight="400" font-size="13" transform="translate(329.933 630)">–</text><text font-family="Aptos,Aptos_MSFontService,sans-serif" font-weight="400" font-size="13" transform="translate(336.1 630)"></text><text font-family="Aptos,Aptos_MSFontService,sans-serif" font-weight="400" font-size="13" transform="translate(338.767 630)">generates a contact list of representatives at active institutions</text><text font-family="Arial,Arial_MSFontService,sans-serif" font-weight="400" font-size="13" transform="translate(145.6 651)">•</text><text font-family="Aptos,Aptos_MSFontService,sans-serif" font-weight="400" font-size="13" transform="translate(169.6 651)">Get_lapsed_representatives</text><text font-family="Aptos,Aptos_MSFontService,sans-serif" font-weight="400" font-size="13" transform="translate(331.767 651)"></text><text font-family="Aptos,Aptos_MSFontService,sans-serif" font-weight="400" font-size="13" transform="translate(334.433 651)">–</text><text font-family="Aptos,Aptos_MSFontService,sans-serif" font-weight="400" font-size="13" transform="translate(340.6 651)"></text><text font-family="Aptos,Aptos_MSFontService,sans-serif" font-weight="400" font-size="13" transform="translate(343.267 651)">generates a contact list of representatives at lapsed institutions (last paid in</text><text font-family="Aptos,Aptos_MSFontService,sans-serif" font-weight="400" font-size="13" transform="translate(777.1 651)"></text><text font-family="Aptos,Aptos_MSFontService,sans-serif" font-weight="400" font-size="13" transform="translate(779.767 651)">2023</text><text font-family="Aptos,Aptos_MSFontService,sans-serif" font-weight="400" font-size="13" transform="translate(808.433 651)">)</text><text font-family="Arial,Arial_MSFontService,sans-serif" font-weight="400" font-size="13" transform="translate(145.6 672)">•</text><text font-family="Aptos,Aptos_MSFontService,sans-serif" font-weight="400" font-size="13" transform="translate(169.6 672)">Get_longer_lapsed_representatives</text><text font-family="Aptos,Aptos_MSFontService,sans-serif" font-weight="400" font-size="13" transform="translate(374.1 672)"></text><text font-family="Aptos,Aptos_MSFontService,sans-serif" font-weight="400" font-size="13" transform="translate(376.767 672)">–</text><text font-family="Aptos,Aptos_MSFontService,sans-serif" font-weight="400" font-size="13" transform="translate(382.933 672)"></text><text font-family="Aptos,Aptos_MSFontService,sans-serif" font-weight="400" font-size="13" transform="translate(385.6 672)">generates a contact list of representatives at longer lapsed institutions (last paid prior to 2023)</text></g></svg>